<svg width="128" height="128" viewBox="0 0 128 128" fill="none" xmlns="http://www.w3.org/2000/svg">
<path d="M43.1732 73.2254L43.1732 73.2254L43.1774 73.2192C44.0457 71.9439 44.4375 70.4312 44.4375 68.7656C44.4375 67.2096 44.0275 65.7861 43.1644 64.559C42.809 64.0536 42.3993 63.6009 41.9395 63.1998C42.2416 62.8982 42.5169 62.57 42.7635 62.2147L42.7635 62.2147L42.7682 62.2079C43.5654 61.0459 43.9531 59.7199 43.9531 58.2812C43.9531 56.6795 43.5876 55.2203 42.7691 53.9885C41.9882 52.7875 40.9053 51.8872 39.5684 51.2882C38.2593 50.6971 36.7986 50.4219 35.2188 50.4219C33.6549 50.4219 32.2015 50.6988 30.8872 51.2872L30.8872 51.2871L30.8823 51.2894C29.5533 51.89 28.4738 52.7907 27.6852 53.9868L27.6852 53.9868L27.683 53.9901C26.8753 55.2223 26.5156 56.6807 26.5156 58.2812C26.5156 59.7199 26.9034 61.0459 27.7006 62.2079L27.7006 62.208L27.7053 62.2147C27.9517 62.5697 28.2267 62.8976 28.5286 63.1991C27.7842 63.8469 27.1884 64.6179 26.7503 65.5047C26.2508 66.5052 26.0156 67.6022 26.0156 68.7656C26.0156 70.4358 26.415 71.9518 27.2975 73.2281L27.2975 73.2281L27.3018 73.2343C28.151 74.4494 29.302 75.3551 30.706 75.9568L30.706 75.9569L30.7164 75.9613C32.094 76.5394 33.6136 76.8125 35.25 76.8125C36.886 76.8125 38.4024 76.5395 39.7724 75.9594L39.7724 75.9594L39.7784 75.9568C41.1841 75.3544 42.333 74.4462 43.1732 73.2254ZM36.6639 67.3536L36.6723 67.37L36.6811 67.3863C36.809 67.6224 36.9062 67.9643 36.9062 68.4688C36.9062 68.9673 36.8123 69.3131 36.6853 69.5571L36.6795 69.5681L36.674 69.5792C36.5562 69.8148 36.4011 69.9764 36.1887 70.0976C35.9843 70.21 35.6894 70.2969 35.25 70.2969C34.8196 70.2969 34.5058 70.2134 34.2683 70.0909C34.0539 69.966 33.8836 69.795 33.7468 69.5465C33.6225 69.3031 33.5312 68.9602 33.5312 68.4688C33.5312 67.9591 33.6254 67.6106 33.7497 67.3697C33.8929 67.1019 34.0691 66.9279 34.285 66.8058C34.5062 66.6808 34.8016 66.5938 35.2188 66.5938C35.6359 66.5938 35.9313 66.6808 36.1525 66.8058C36.3645 66.9257 36.5314 67.094 36.6639 67.3536ZM36.2713 57.5367L36.2712 57.5367L36.2771 57.5489C36.3752 57.7497 36.4531 58.0459 36.4531 58.4844C36.4531 58.9205 36.376 59.2388 36.2657 59.475L36.2626 59.4818L36.2594 59.4887C36.1653 59.6959 36.0457 59.8272 35.8936 59.9247L35.8861 59.9295L35.8787 59.9344C35.7748 60.0028 35.5919 60.0781 35.25 60.0781C34.9095 60.0781 34.7133 60.0032 34.5907 59.9247C34.4368 59.826 34.3097 59.6909 34.2063 59.4814C34.1027 59.2405 34.0312 58.9186 34.0312 58.4844C34.0312 58.0124 34.1084 57.7003 34.2008 57.4985C34.3033 57.2864 34.4177 57.173 34.535 57.1002C34.6698 57.0226 34.8787 56.9531 35.2188 56.9531C35.5881 56.9531 35.7831 57.0311 35.8865 57.0964L35.8939 57.101L35.9014 57.1056C36.0454 57.1943 36.1685 57.3215 36.2713 57.5367ZM58.4531 52.2031V50.7031H56.9531H56.4688H56.2093L55.965 50.7902L46.5431 54.1496L45.5469 54.5048V55.5625V59.1094V61.1602L47.5013 60.5389L50.9531 59.4415V75V76.5H52.4531H56.9531H58.4531V75V52.2031ZM79.2812 52.25V50.75H77.7812H73.1094H71.6094V52.25V75V76.5H73.1094H77.7812H79.2812V75V52.25ZM101.703 63.1094V61.6094H100.203H91.2344H89.7344V63.1094V66.4531V67.9531H91.2344H94.0156V69.7345C93.8753 69.8125 93.6278 69.9141 93.2299 70.0135L93.2227 70.0154C92.8962 70.0987 92.4166 70.1562 91.75 70.1562C91.0407 70.1562 90.4897 70.0314 90.0585 69.8293C89.6288 69.6279 89.2604 69.3305 88.9453 68.9115C88.6315 68.47 88.3648 67.8896 88.1737 67.1352C87.9809 66.3636 87.875 65.438 87.875 64.3438V62.8906C87.875 61.7795 87.9769 60.8501 88.1612 60.0863C88.3481 59.3121 88.6042 58.7279 88.8978 58.2949C89.1873 57.8679 89.5146 57.5821 89.8766 57.3948L89.8766 57.3949L89.8852 57.3904C90.2589 57.194 90.7122 57.0781 91.2812 57.0781C92.074 57.0781 92.574 57.2154 92.8771 57.3803L92.8867 57.3854C93.2503 57.5797 93.5008 57.829 93.6777 58.1428C93.8956 58.5294 94.0644 59.0201 94.1569 59.6424L94.3471 60.9219H95.6406H100.188H101.857L101.679 59.2621C101.503 57.6151 101.027 56.1116 100.227 54.7804C99.4025 53.3796 98.2106 52.3041 96.7062 51.551C95.1601 50.7666 93.2829 50.4219 91.1562 50.4219C89.5553 50.4219 88.0577 50.6971 86.6852 51.2731C85.3152 51.848 84.1273 52.691 83.1351 53.7934C82.136 54.9035 81.3894 56.2407 80.8749 57.7724L80.8749 57.7724L80.8717 57.7822C80.3648 59.3266 80.125 61.0464 80.125 62.9219V64.3438C80.125 66.2254 80.3768 67.9522 80.9095 69.5029L80.9106 69.5063C81.4386 71.0315 82.2045 72.3629 83.2254 73.4701L83.2315 73.4766C84.258 74.5764 85.4827 75.4138 86.8898 75.984L86.8898 75.984L86.9002 75.9881C88.3059 76.5456 89.8351 76.8125 91.4688 76.8125C93.2236 76.8125 94.7906 76.6259 96.1388 76.2166C97.3965 75.8348 98.494 75.3598 99.3905 74.7664L99.3966 74.7624L99.4026 74.7583C100.198 74.2208 100.875 73.6649 101.358 73.0825L101.703 72.666V72.125V63.1094Z" fill="#E5FDFB" fill-opacity="0.15" stroke="#4FDAD7" stroke-width="3"/>
</svg>
